# Blender 5.1.1
# www.blender.org
o Door.002
v -1.598793 0.000000 0.025373
v -1.598793 0.000000 -0.025373
v -1.598793 3.217676 0.025373
v 1.598793 0.000000 0.025373
v 1.598793 0.000000 -0.025373
v 1.598793 3.217676 0.025373
v 1.598793 3.217676 -0.025373
v -1.598793 3.217676 -0.025373
vn -0.0000 -1.0000 -0.0000
vn -1.0000 -0.0000 -0.0000
vn -0.0000 -0.0000 1.0000
vn 1.0000 -0.0000 -0.0000
vn -0.0000 1.0000 -0.0000
vn -0.0000 -0.0000 -1.0000
vt 0.401325 0.018357
vt 0.384950 0.004214
vt 0.401325 0.004214
vt 0.839647 0.480672
vt 0.822395 0.018357
vt 0.839647 0.018357
vt 0.384950 0.480672
vt 0.040726 0.018357
vt 0.384950 0.018357
vt 0.401325 0.480672
vt 0.401325 0.495723
vt 0.822395 0.480672
vt 0.040726 0.480672
vt 0.384950 0.495723
s 0
f 5/1/1 1/2/1 2/3/1
f 3/4/2 2/5/2 1/6/2
f 6/7/3 1/8/3 4/9/3
f 7/10/4 4/9/4 5/1/4
f 8/11/5 6/7/5 7/10/5
f 8/12/6 5/1/6 2/5/6
f 5/1/1 4/9/1 1/2/1
f 3/4/2 8/12/2 2/5/2
f 6/7/3 3/13/3 1/8/3
f 7/10/4 6/7/4 4/9/4
f 8/11/5 3/14/5 6/7/5
f 8/12/6 7/10/6 5/1/6
