# Blender 5.1.1
# www.blender.org
o Door.001
v -2.000000 0.000000 0.400000
v -2.000000 0.000000 -0.400000
v -1.600000 0.000000 0.032000
v -2.000000 3.120493 0.400000
v -2.000000 3.120493 -0.400000
v -2.000000 4.000000 0.400000
v -1.600000 3.120493 0.032000
v -1.600000 4.000000 0.400000
v 1.600000 3.120493 0.032000
v 2.000000 3.120493 0.400000
v 1.600000 4.000000 0.400000
v 1.600000 0.000000 0.032000
v 1.600000 0.000000 -0.032000
v 2.000000 0.000000 0.400000
v 1.598793 0.000000 0.032000
v 1.598793 3.117676 0.032000
v 1.618794 0.000000 0.032000
v 1.618794 0.000000 -0.032000
v 1.618794 3.137680 0.032000
v -1.618800 3.137680 0.032000
v 1.618794 3.137680 -0.032000
v 1.598793 3.117676 -0.032000
v -1.618800 3.137680 -0.032000
v -1.618800 0.000000 -0.032000
v -1.598793 3.117676 -0.032000
v -1.598793 0.000000 -0.032000
v -1.600000 0.000000 -0.032000
v -1.600000 3.120493 -0.032000
v -1.600000 4.000000 -0.400000
v 1.600000 3.120493 -0.032000
v 2.000000 3.120493 -0.400000
v 1.600000 4.000000 -0.400000
v 2.000000 4.000000 -0.400000
v 2.000000 4.000000 0.400000
v 2.000000 0.000000 -0.400000
v -2.000000 4.000000 -0.400000
v -1.618800 0.000000 0.032000
v -1.598793 0.000000 0.032000
v -1.598793 3.117676 0.032000
v 1.598793 0.000000 -0.032000
v -1.600000 4.000000 0.400000
vn -1.0000 -0.0000 -0.0000
vn 0.6771 -0.0000 0.7359
vn 0.6471 -0.2943 0.7033
vn -0.0000 -0.3860 0.9225
vn -0.0000 -0.0000 1.0000
vn -0.6771 -0.0000 0.7359
vn -0.6471 -0.2943 0.7033
vn -0.0000 -0.0000 -1.0000
vn -0.0000 -1.0000 -0.0000
vn 1.0000 -0.0000 -0.0000
vn 0.6771 -0.0000 -0.7359
vn 0.6471 -0.2943 -0.7033
vn -0.0000 -0.3860 -0.9225
vn -0.6771 -0.0000 -0.7359
vn -0.6471 -0.2943 -0.7033
vt 0.709545 0.873918
vt 0.955096 0.624424
vt 0.961117 0.875888
vt 0.601740 0.991320
vt 0.964235 0.992495
vt 0.617543 0.873187
vt 0.704133 0.624121
vt 0.603263 0.874070
vt 0.367739 0.874303
vt 0.368261 0.991557
vt 0.368152 0.991583
vt 0.260170 0.874448
vt 0.005895 0.993477
vt 0.009487 0.885403
vt 0.513167 0.791880
vt 0.606906 0.791424
vt 0.606907 0.791713
vt 0.512973 0.733412
vt 0.513056 0.791504
vt 0.452375 0.791942
vt 0.452485 0.791566
vt 0.452401 0.733454
vt 0.513082 0.733036
vt 0.606823 0.733333
vt 0.452290 0.733078
vt 0.358464 0.733534
vt 0.358441 0.733244
vt 0.358568 0.791666
vt 0.960907 0.505501
vt 0.599096 0.624191
vt 0.599915 0.507371
vt 0.367513 0.507589
vt 0.009651 0.633718
vt 0.006785 0.506393
vt 0.366235 0.624313
vt 0.259514 0.624372
vt 0.349981 0.624953
vt 0.611121 0.624997
vt 0.005917 0.993502
vt 0.964213 0.992521
vt 0.602360 0.991346
vt 0.350483 0.873640
vt 0.606823 0.733043
vt 0.358569 0.791956
s 0
f 4/1/1 2/2/1 1/3/1
f 7/4/2 1/3/2 3/5/2
f 6/6/1 5/7/1 4/1/1
f 8/8/3 4/1/3 7/4/3
f 11/9/4 7/4/4 9/10/4
f 9/10/5 7/4/5 16/11/5
f 10/12/6 12/13/6 14/14/6
f 10/12/7 11/9/7 9/10/7
f 16/15/8 17/16/8 15/17/8
f 21/18/1 17/16/1 19/19/1
f 39/20/8 19/19/8 16/15/8
f 21/18/9 20/21/9 23/22/9
f 22/23/5 18/24/5 21/18/5
f 25/25/5 21/18/5 23/22/5
f 25/25/5 24/26/5 26/27/5
f 23/22/10 37/28/10 24/26/10
f 5/7/11 27/29/11 2/2/11
f 5/7/12 29/30/12 28/31/12
f 29/30/13 30/32/13 28/31/13
f 30/32/14 35/33/14 13/34/14
f 32/35/15 31/36/15 30/32/15
f 33/37/10 10/12/10 31/36/10
f 31/36/10 14/14/10 35/33/10
f 39/20/8 37/28/8 20/21/8
f 4/1/1 5/7/1 2/2/1
f 7/4/2 4/1/2 1/3/2
f 6/6/1 36/38/1 5/7/1
f 8/8/5 6/6/5 4/1/5
f 11/9/4 8/8/4 7/4/4
f 16/11/5 15/39/5 12/13/5
f 7/4/5 3/5/5 38/40/5
f 7/4/5 38/40/5 39/41/5
f 16/11/5 12/13/5 9/10/5
f 7/4/5 39/41/5 16/11/5
f 10/12/6 9/10/6 12/13/6
f 10/12/5 34/42/5 11/9/5
f 16/15/8 19/19/8 17/16/8
f 21/18/1 18/24/1 17/16/1
f 39/20/8 20/21/8 19/19/8
f 21/18/9 19/19/9 20/21/9
f 22/23/5 40/43/5 18/24/5
f 25/25/5 22/23/5 21/18/5
f 25/25/5 23/22/5 24/26/5
f 23/22/10 20/21/10 37/28/10
f 5/7/11 28/31/11 27/29/11
f 5/7/8 36/38/8 29/30/8
f 29/30/13 32/35/13 30/32/13
f 30/32/14 31/36/14 35/33/14
f 32/35/8 33/37/8 31/36/8
f 33/37/10 34/42/10 10/12/10
f 31/36/10 10/12/10 14/14/10
f 39/20/8 38/44/8 37/28/8
l 8 41
