# Blender 5.1.0
# www.blender.org
o Cube
v -1.000000 0.000000 1.000000
v -1.000000 0.020000 1.000000
v -1.000000 0.000000 -1.000000
v -1.000000 0.020000 -1.000000
v 1.000000 0.000000 1.000000
v 1.000000 0.020000 1.000000
v 1.000000 0.000000 -1.000000
v 1.000000 0.020000 -1.000000
v 0.800000 0.000000 -1.000000
v -0.800000 0.000000 -1.000000
v -0.800000 0.020000 -1.000000
v 0.800000 0.020000 -1.000000
v -0.800000 0.000000 1.000000
v 0.800000 0.000000 1.000000
v 0.800000 0.020000 1.000000
v -0.800000 0.020000 1.000000
v -1.000000 0.000000 -0.800000
v -1.000000 0.000000 0.800000
v -1.000000 0.020000 0.800000
v -1.000000 0.020000 -0.800000
v 1.000000 0.000000 0.800000
v 1.000000 0.000000 -0.800000
v 1.000000 0.020000 -0.800000
v 1.000000 0.020000 0.800000
v 0.690000 0.020000 -0.723776
v 0.690000 0.020000 0.723776
v -0.690000 0.020000 -0.723776
v -0.690000 0.020000 0.723776
v -0.800000 0.000000 -0.800000
v -0.800000 0.000000 0.800000
v 0.800000 0.000000 -0.800000
v 0.800000 0.000000 0.800000
v 0.600000 0.000000 -1.000000
v -0.600000 0.000000 -1.000000
v -0.600000 0.020000 -1.000000
v 0.600000 0.020000 -1.000000
v -0.600000 0.000000 1.000000
v 0.600000 0.000000 1.000000
v 0.600000 0.020000 1.000000
v -0.600000 0.020000 1.000000
v 0.600000 0.000000 -0.800000
v -0.600000 0.000000 -0.800000
v 0.600000 0.000000 0.800000
v -0.600000 0.000000 0.800000
v -0.616224 0.020000 -0.723776
v 0.616224 0.020000 -0.723776
v -0.616224 0.020000 0.723776
v 0.616224 0.020000 0.723776
v -1.000000 0.000000 -0.600000
v -1.000000 0.000000 0.600000
v -1.000000 0.020000 0.600000
v -1.000000 0.020000 -0.600000
v 1.000000 0.000000 0.600000
v 1.000000 0.000000 -0.600000
v 1.000000 0.020000 -0.600000
v 1.000000 0.020000 0.600000
v 0.690000 0.020000 -0.616224
v 0.690000 0.020000 0.616224
v -0.690000 0.020000 -0.616224
v -0.690000 0.020000 0.616224
v -0.800000 0.000000 -0.600000
v -0.800000 0.000000 0.600000
v 0.800000 0.000000 -0.600000
v 0.800000 0.000000 0.600000
v 0.616224 0.020000 -0.616224
v 0.616224 0.020000 0.616224
v -0.616224 0.020000 -0.616224
v -0.616224 0.020000 0.616224
v -0.600000 0.000000 -0.600000
v -0.600000 0.000000 0.600000
v 0.600000 0.000000 -0.600000
v 0.600000 0.000000 0.600000
v -0.600000 0.010000 -0.800000
v 0.600000 0.010000 -0.800000
v 0.600000 0.010000 -0.600000
v -0.600000 0.010000 -0.600000
v -0.600000 0.010000 0.800000
v 0.600000 0.010000 0.800000
v 0.600000 0.010000 0.600000
v -0.600000 0.010000 0.600000
v -0.950000 0.020000 0.600000
v -0.950000 0.020000 -0.600000
v 0.950000 0.020000 -0.600000
v 0.950000 0.020000 0.600000
v -0.600000 0.020000 -0.950000
v 0.600000 0.020000 -0.950000
v -0.600000 0.020000 0.950000
v 0.600000 0.020000 0.950000
v -0.600000 0.030000 -1.000000
v 0.600000 0.030000 -1.000000
v 0.600000 0.030000 1.000000
v -0.600000 0.030000 1.000000
v -1.000000 0.030000 0.600000
v -1.000000 0.030000 -0.600000
v 1.000000 0.030000 -0.600000
v 1.000000 0.030000 0.600000
v 0.800000 0.010000 -0.600000
v 0.800000 0.010000 0.600000
v -0.800000 0.010000 -0.600000
v -0.800000 0.010000 0.600000
v 0.800000 0.020000 0.600000
v 0.800000 0.020000 0.800000
v -0.800000 0.020000 0.600000
v -0.800000 0.020000 0.800000
v 0.600000 0.020000 -0.800000
v 0.800000 0.020000 -0.800000
v 0.600000 0.020000 0.800000
v -0.800000 0.020000 -0.800000
v -0.600000 0.020000 -0.800000
v -0.600000 0.020000 0.800000
v 0.600000 0.020000 0.600000
v -0.600000 0.020000 0.600000
v 0.800000 0.020000 -0.600000
v -0.800000 0.020000 -0.600000
v 0.600000 0.020000 -0.600000
v -0.600000 0.020000 -0.600000
v 0.690000 0.010000 0.616224
v 0.690000 0.010000 0.723776
v -0.690000 0.010000 0.616224
v -0.690000 0.010000 0.723776
v 0.616224 0.010000 -0.723776
v 0.690000 0.010000 -0.723776
v 0.616224 0.010000 0.723776
v -0.690000 0.010000 -0.723776
v -0.616224 0.010000 -0.723776
v -0.616224 0.010000 0.723776
v 0.616224 0.010000 0.616224
v -0.616224 0.010000 0.616224
v 0.690000 0.010000 -0.616224
v -0.690000 0.010000 -0.616224
v 0.616224 0.010000 -0.616224
v -0.616224 0.010000 -0.616224
v 0.600000 0.020409 0.950000
v 0.600000 0.027191 0.964645
v -0.600000 0.020409 0.950000
v -0.600000 0.027191 0.964645
v 0.950000 0.020409 -0.600000
v 0.964645 0.027191 -0.600000
v 0.950000 0.020409 0.600000
v 0.964645 0.027191 0.600000
v -0.950000 0.020409 0.600000
v -0.964645 0.027191 0.600000
v -0.950000 0.020409 -0.600000
v -0.964645 0.027191 -0.600000
v -0.600000 0.020409 -0.950000
v -0.600000 0.027191 -0.964645
v 0.600000 0.020409 -0.950000
v 0.600000 0.027191 -0.964645
v 0.600000 0.020000 0.600000
v 0.600000 0.020000 -0.600000
vn -1.0000 -0.0000 -0.0000
vn -0.0000 -0.0000 -1.0000
vn 1.0000 -0.0000 -0.0000
vn -0.0000 -0.0000 1.0000
vn -0.0000 -1.0000 -0.0000
vn -0.0000 1.0000 -0.0000
vn 0.4202 0.9074 -0.0000
vn 0.0792 0.9969 -0.0000
vn -0.0792 0.9969 -0.0000
vn -0.4202 0.9074 -0.0000
vn -0.0000 0.9074 0.4202
vn -0.0000 0.9969 0.0792
vn -0.0000 0.9969 -0.0792
vn -0.0000 0.9074 -0.4202
vt 0.927935 0.978283
vt 0.925227 0.951195
vt 0.927935 0.951195
vt 0.898139 0.926816
vt 0.925227 0.924107
vt 0.925227 0.926816
vt 0.949606 0.897019
vt 0.952315 0.924107
vt 0.949606 0.924107
vt 0.979402 0.948487
vt 0.952314 0.951195
vt 0.952314 0.948486
vt 0.952315 0.926816
vt 0.949606 0.926816
vt 0.203256 0.897065
vt 0.302776 0.797546
vt 0.302776 0.897065
vt 0.302936 0.690826
vt 0.402455 0.591307
vt 0.402455 0.690826
vt 0.402295 0.797546
vt 0.402295 0.822425
vt 0.949606 0.948486
vt 0.949606 0.951195
vt 0.952315 0.929525
vt 0.949606 0.929525
vt 0.979403 0.924107
vt 0.979402 0.945778
vt 0.952315 0.945778
vt 0.898139 0.951195
vt 0.925227 0.948486
vt 0.898139 0.929524
vt 0.925227 0.929525
vt 0.927936 0.929525
vt 0.946897 0.926816
vt 0.946897 0.929525
vt 0.946897 0.948486
vt 0.946897 0.951195
vt 0.202183 0.690826
vt 0.102663 0.591307
vt 0.177303 0.591307
vt 0.527764 0.727676
vt 0.478583 0.767263
vt 0.478498 0.726408
vt 0.102503 0.996584
vt 0.202022 0.897065
vt 0.202022 0.996584
vt 0.377575 0.790346
vt 0.202183 0.790346
vt 0.102663 0.690826
vt 0.228136 0.996584
vt 0.927936 0.926816
vt 0.946897 0.924107
vt 0.925227 0.897019
vt 0.927936 0.924107
vt 0.946897 0.897019
vt 0.952314 0.978283
vt 0.930644 0.978283
vt 0.930644 0.951195
vt 0.724192 0.951676
vt 0.676809 0.917970
vt 0.724168 0.917871
vt 0.834346 0.402498
vt 0.960945 0.379807
vt 0.960945 0.402498
vt 0.002984 0.996584
vt 0.002984 0.971704
vt 0.102503 0.897065
vt 0.946897 0.978283
vt 0.930644 0.991827
vt 0.946897 0.945778
vt 0.949606 0.945777
vt 0.925227 0.945777
vt 0.927935 0.948486
vt 0.927935 0.945777
vt 0.898139 0.948486
vt 0.898139 0.945777
vt 0.979402 0.926816
vt 0.979402 0.929525
vt 0.203417 0.690826
vt 0.203417 0.616187
vt 0.302936 0.591307
vt 0.810429 0.379807
vt 0.733370 0.229292
vt 0.810429 0.229292
vt 0.930644 0.945777
vt 0.930644 0.929525
vt 0.930644 0.948486
vt 0.961839 0.408974
vt 0.835240 0.433762
vt 0.835240 0.408974
vt 0.006207 0.004657
vt 0.586360 0.584810
vt 0.006207 0.584810
vt 0.529085 0.591626
vt 0.480988 0.637991
vt 0.479819 0.592893
vt 0.960945 0.005355
vt 0.834346 0.030143
vt 0.834346 0.005355
vt 0.949606 0.978283
vt 0.927936 0.897019
vt 0.930644 0.924107
vt 0.930645 0.897019
vt 0.930644 0.926816
vt 0.102663 0.790346
vt 0.003144 0.765466
vt 0.003144 0.690826
vt 0.731990 0.792297
vt 0.809050 0.641781
vt 0.809050 0.792297
vt 0.177143 0.797546
vt 0.202022 0.797546
vt 0.432940 0.639772
vt 0.481856 0.671680
vt 0.433810 0.673566
vt 0.959565 0.616993
vt 0.832966 0.641781
vt 0.832966 0.616993
vt 0.961839 0.584278
vt 0.835240 0.584278
vt 0.835240 0.606969
vt 0.961839 0.606969
vt 0.811324 0.433762
vt 0.811324 0.584278
vt 0.982428 0.584278
vt 0.961839 0.433762
vt 0.982427 0.433762
vt 0.834346 0.229292
vt 0.960945 0.229292
vt 0.981533 0.379807
vt 0.981533 0.229292
vt 0.834346 0.379807
vt 0.960945 0.204504
vt 0.834346 0.204504
vt 0.733370 0.030143
vt 0.810429 0.180659
vt 0.733370 0.180659
vt 0.734264 0.433762
vt 0.734264 0.584278
vt 0.884595 0.929524
vt 0.992946 0.945778
vt 0.946897 0.883475
vt 0.960945 0.030143
vt 0.834346 0.180659
vt 0.832966 0.792297
vt 0.959565 0.641781
vt 0.959565 0.792297
vt 0.980153 0.792297
vt 0.980153 0.641781
vt 0.981533 0.180659
vt 0.981533 0.030143
vt 0.832966 0.814988
vt 0.959565 0.814988
vt 0.834346 0.203350
vt 0.960945 0.180659
vt 0.960945 0.203350
vt 0.810429 0.030143
vt 0.248200 0.728755
vt 0.302936 0.790346
vt 0.248200 0.782272
vt 0.357511 0.934994
vt 0.302776 0.996584
vt 0.047768 0.859136
vt 0.002984 0.897065
vt 0.011057 0.859136
vt 0.064735 0.636091
vt 0.402295 0.897065
vt 0.394221 0.934994
vt 0.211490 0.728755
vt 0.203417 0.790346
vt 0.402295 0.996584
vt 0.394221 0.988511
vt 0.102503 0.797546
vt 0.011217 0.636091
vt 0.002984 0.797546
vt 0.011057 0.805619
vt 0.064735 0.599380
vt 0.003144 0.591307
vt 0.047768 0.805619
vt 0.211490 0.782272
vt 0.011217 0.599380
vt 0.357511 0.988511
vt 0.526828 0.802216
vt 0.527696 0.768527
vt 0.530969 0.670416
vt 0.472761 0.921439
vt 0.522741 0.953863
vt 0.473628 0.955128
vt 0.627680 0.918004
vt 0.676832 0.951670
vt 0.627703 0.951704
vt 0.482914 0.713148
vt 0.532180 0.711879
vt 0.575743 0.803525
vt 0.576613 0.769731
vt 0.474624 0.995403
vt 0.523889 0.994135
vt 0.477249 0.846662
vt 0.526514 0.847930
vt 0.676071 0.877073
vt 0.626789 0.877107
vt 0.424649 0.922028
vt 0.425519 0.955822
vt 0.520793 0.873880
vt 0.471528 0.875149
vt 0.579183 0.669825
vt 0.530102 0.636727
vt 0.578314 0.636031
vt 0.627696 0.997401
vt 0.676978 0.997366
vt 0.578748 0.917972
vt 0.578771 0.951777
vt 0.570892 0.952079
vt 0.521874 0.920174
vt 0.570022 0.918285
vt 0.431240 0.765989
vt 0.477716 0.800952
vt 0.430370 0.799783
vt 0.726862 0.792297
vt 0.677420 0.641781
vt 0.726862 0.641781
vt 0.677420 0.792297
vt 0.606263 0.641781
vt 0.607643 0.030143
vt 0.678800 0.180659
vt 0.607643 0.180659
vt 0.678800 0.030143
vt 0.728242 0.180659
vt 0.729137 0.584278
vt 0.679695 0.433762
vt 0.729137 0.433762
vt 0.679695 0.584278
vt 0.608537 0.433762
vt 0.607643 0.229292
vt 0.678800 0.379807
vt 0.607643 0.379807
vt 0.678800 0.229292
vt 0.728242 0.379807
vt 0.990328 0.851009
vt 0.908492 0.849343
vt 0.876521 0.845319
vt 0.733370 0.379807
vt 0.728242 0.229292
vt 0.875069 0.839665
vt 0.793232 0.835641
vt 0.870417 0.833974
vt 0.759966 0.851010
vt 0.678130 0.849343
vt 0.646159 0.845319
vt 0.728242 0.030143
vt 0.875147 0.858074
vt 0.793311 0.854050
vt 0.870495 0.852383
vt 0.875147 0.851009
vt 0.793311 0.849343
vt 0.761340 0.845319
vt 0.731990 0.641781
vt 0.759888 0.839665
vt 0.678052 0.835641
vt 0.755236 0.833974
vt 0.990328 0.858074
vt 0.908492 0.856407
vt 0.876521 0.852383
vt 0.990250 0.839665
vt 0.908413 0.835641
vt 0.985597 0.833974
vt 0.690504 0.796429
vt 0.604294 0.820031
vt 0.686974 0.820031
vt 0.925226 0.978283
vt 0.898139 0.924107
vt 0.952315 0.897019
vt 0.979402 0.951195
vt 0.203256 0.797546
vt 0.202183 0.591307
vt 0.402455 0.790346
vt 0.203256 0.996584
vt 0.946897 0.991827
vt 0.203417 0.591307
vt 0.586360 0.004657
vt 0.003144 0.790346
vt 0.884595 0.945777
vt 0.992946 0.929525
vt 0.930645 0.883475
vt 0.606263 0.792297
vt 0.608537 0.584278
vt 0.990328 0.845319
vt 0.985675 0.851009
vt 0.875069 0.833974
vt 0.761262 0.839665
vt 0.759966 0.845319
vt 0.755314 0.851010
vt 0.875147 0.852383
vt 0.761340 0.858074
vt 0.875147 0.845319
vt 0.870495 0.851009
vt 0.759888 0.833974
vt 0.646081 0.839665
vt 0.990328 0.852384
vt 0.985675 0.858074
vt 0.990250 0.833974
vt 0.876443 0.839665
vt 0.607825 0.796429
s 0
f 20/1/1 3/2/1 17/3/1
f 12/4/2 7/5/2 9/6/2
f 24/7/3 5/8/3 21/9/3
f 16/10/4 1/11/4 13/12/4
f 21/9/5 14/13/5 32/14/5
f 19/15/6 16/16/6 104/17/6
f 102/18/6 6/19/6 24/20/6
f 104/17/6 40/21/6 87/22/6
f 30/23/5 1/11/5 18/24/5
f 32/14/5 38/25/5 43/26/5
f 6/27/4 14/13/4 5/8/4
f 40/28/4 13/12/4 37/29/4
f 4/30/2 10/31/2 3/2/2
f 36/32/2 9/6/2 33/33/2
f 9/6/5 41/34/5 33/33/5
f 64/35/5 43/26/5 72/36/5
f 10/31/5 17/3/5 3/2/5
f 62/37/5 18/24/5 50/38/5
f 11/39/6 109/40/6 85/41/6
f 68/42/1 126/43/1 47/44/1
f 12/45/6 23/46/6 8/47/6
f 84/48/6 102/18/6 24/20/6
f 4/49/6 108/50/6 11/39/6
f 81/51/6 19/15/6 104/17/6
f 7/5/5 31/52/5 9/6/5
f 53/53/5 32/14/5 64/35/5
f 8/54/3 22/55/3 7/5/3
f 56/56/3 21/9/3 53/53/3
f 2/57/1 18/24/1 1/11/1
f 52/58/1 17/3/1 49/59/1
f 67/60/2 130/61/2 59/62/2
f 110/63/3 80/64/3 112/65/3
f 36/66/6 86/67/6 106/68/6
f 51/69/1 94/70/1 52/58/1
f 70/71/5 30/23/5 62/37/5
f 72/36/5 44/72/5 70/71/5
f 34/73/5 29/74/5 10/31/5
f 33/33/5 42/75/5 34/73/5
f 11/76/2 34/73/2 10/31/2
f 35/77/2 33/33/2 34/73/2
f 15/78/4 38/25/4 14/13/4
f 39/79/4 37/29/4 38/25/4
f 44/72/5 13/12/5 30/23/5
f 43/26/5 37/29/5 44/72/5
f 107/80/6 88/81/6 15/82/6
f 110/83/6 88/84/6 107/85/6
f 41/34/5 69/86/5 42/75/5
f 71/87/5 70/71/5 69/86/5
f 42/75/5 61/88/5 29/74/5
f 69/86/5 62/37/5 61/88/5
f 116/89/3 73/90/3 109/91/3
f 116/92/6 111/93/6 115/94/6
f 48/95/3 127/96/3 66/97/3
f 115/98/4 97/99/4 113/100/4
f 19/101/1 50/38/1 18/24/1
f 51/69/1 49/59/1 50/38/1
f 23/102/3 54/103/3 22/55/3
f 55/104/3 53/53/3 54/103/3
f 31/52/5 54/103/5 63/105/5
f 54/103/5 64/35/5 63/105/5
f 20/106/6 82/107/6 114/108/6
f 82/109/6 103/110/6 114/111/6
f 106/68/6 83/112/6 55/113/6
f 66/114/4 117/115/4 58/116/4
f 112/117/2 100/118/2 103/119/2
f 29/74/5 49/59/5 17/3/5
f 61/88/5 50/38/5 49/59/5
f 31/52/5 71/87/5 41/34/5
f 63/105/5 72/36/5 71/87/5
f 73/90/6 75/120/6 74/121/6
f 105/122/1 75/120/1 115/123/1
f 109/124/4 74/121/4 105/125/4
f 115/126/2 76/127/2 116/128/2
f 80/64/6 78/129/6 79/130/6
f 112/131/4 79/130/4 111/132/4
f 107/85/2 77/133/2 110/83/2
f 111/134/1 78/129/1 107/135/1
f 83/136/6 101/137/6 84/138/6
f 85/139/6 105/125/6 86/140/6
f 35/77/2 90/141/2 36/32/2
f 39/79/4 92/142/4 40/28/4
f 55/104/3 96/143/3 56/56/3
f 75/144/6 98/145/6 97/99/6
f 99/146/6 80/147/6 76/148/6
f 116/149/1 80/147/1 112/150/1
f 111/151/3 75/144/3 115/152/3
f 103/110/3 99/146/3 114/111/3
f 114/153/4 76/148/4 116/154/4
f 101/155/2 79/156/2 111/157/2
f 113/158/1 98/145/1 101/137/1
f 26/159/6 101/160/6 58/161/6
f 28/162/6 103/163/6 104/17/6
f 25/164/6 105/165/6 46/166/6
f 26/159/6 107/80/6 102/18/6
f 27/167/6 109/40/6 108/50/6
f 28/162/6 110/168/6 47/169/6
f 48/170/6 111/171/6 107/80/6
f 47/169/6 112/172/6 68/173/6
f 25/164/6 113/174/6 106/68/6
f 27/167/6 114/108/6 59/175/6
f 46/166/6 115/176/6 65/177/6
f 45/178/6 116/179/6 109/40/6
f 57/180/6 115/176/6 113/174/6
f 58/161/6 111/171/6 66/181/6
f 59/175/6 116/179/6 67/182/6
f 60/183/6 112/172/6 103/163/6
f 119/184/6 126/43/6 128/185/6
f 127/96/6 118/186/6 117/115/6
f 121/187/6 129/188/6 122/189/6
f 124/190/6 132/191/6 125/192/6
f 58/193/1 118/186/1 26/194/1
f 60/195/4 128/185/4 68/196/4
f 25/197/1 129/188/1 57/198/1
f 28/199/3 119/184/3 60/200/3
f 59/201/3 124/190/3 27/202/3
f 46/203/4 122/189/4 25/204/4
f 65/205/3 121/187/3 46/206/3
f 26/207/2 123/208/2 48/209/2
f 45/210/1 132/191/1 67/211/1
f 27/212/4 125/192/4 45/213/4
f 57/214/2 131/215/2 65/216/2
f 47/217/2 120/218/2 28/219/2
f 143/220/7 142/221/7 141/222/7
f 144/223/8 93/224/8 142/221/8
f 95/225/9 140/226/9 96/227/9
f 138/228/10 139/229/10 140/226/10
f 147/230/11 146/231/11 145/232/11
f 148/233/12 89/234/12 146/231/12
f 91/235/13 136/236/13 92/237/13
f 134/238/14 135/239/14 136/236/14
f 88/240/3 134/241/3 91/242/3
f 87/243/2 133/244/2 88/84/2
f 40/245/1 136/246/1 135/247/1
f 83/248/2 138/249/2 95/250/2
f 84/138/1 137/251/1 83/136/1
f 56/252/4 140/253/4 139/254/4
f 81/255/4 142/256/4 93/257/4
f 82/109/3 141/222/3 81/258/3
f 52/259/2 144/260/2 143/261/2
f 85/262/1 146/263/1 89/264/1
f 86/140/4 145/232/4 85/139/4
f 36/265/3 148/266/3 147/267/3
f 111/268/6 150/269/6 149/270/6
f 20/1/1 4/271/1 3/2/1
f 12/4/2 8/272/2 7/5/2
f 24/7/3 6/273/3 5/8/3
f 16/10/4 2/274/4 1/11/4
f 21/9/5 5/8/5 14/13/5
f 19/15/6 2/275/6 16/16/6
f 102/18/6 15/82/6 6/19/6
f 87/22/6 110/168/6 104/17/6
f 104/17/6 16/16/6 40/21/6
f 30/23/5 13/12/5 1/11/5
f 32/14/5 14/13/5 38/25/5
f 6/27/4 15/78/4 14/13/4
f 40/28/4 16/10/4 13/12/4
f 4/30/2 11/76/2 10/31/2
f 36/32/2 12/4/2 9/6/2
f 9/6/5 31/52/5 41/34/5
f 64/35/5 32/14/5 43/26/5
f 10/31/5 29/74/5 17/3/5
f 62/37/5 30/23/5 18/24/5
f 85/41/6 35/276/6 11/39/6
f 11/39/6 108/50/6 109/40/6
f 68/42/1 128/185/1 126/43/1
f 12/45/6 106/68/6 23/46/6
f 24/20/6 56/277/6 84/48/6
f 84/48/6 101/160/6 102/18/6
f 4/49/6 20/106/6 108/50/6
f 104/17/6 103/163/6 81/51/6
f 81/51/6 51/278/6 19/15/6
f 7/5/5 22/55/5 31/52/5
f 53/53/5 21/9/5 32/14/5
f 8/54/3 23/102/3 22/55/3
f 56/56/3 24/7/3 21/9/3
f 2/57/1 19/101/1 18/24/1
f 52/58/1 20/1/1 17/3/1
f 67/60/2 132/191/2 130/61/2
f 110/63/3 77/133/3 80/64/3
f 106/68/6 12/45/6 36/66/6
f 86/67/6 105/165/6 106/68/6
f 51/69/1 93/279/1 94/70/1
f 70/71/5 44/72/5 30/23/5
f 72/36/5 43/26/5 44/72/5
f 34/73/5 42/75/5 29/74/5
f 33/33/5 41/34/5 42/75/5
f 11/76/2 35/77/2 34/73/2
f 35/77/2 36/32/2 33/33/2
f 15/78/4 39/79/4 38/25/4
f 39/79/4 40/28/4 37/29/4
f 44/72/5 37/29/5 13/12/5
f 43/26/5 38/25/5 37/29/5
f 15/82/6 102/18/6 107/80/6
f 88/81/6 39/280/6 15/82/6
f 110/83/6 87/243/6 88/84/6
f 41/34/5 71/87/5 69/86/5
f 71/87/5 72/36/5 70/71/5
f 42/75/5 69/86/5 61/88/5
f 69/86/5 70/71/5 62/37/5
f 116/89/3 76/127/3 73/90/3
f 116/92/6 112/281/6 111/93/6
f 48/95/3 123/208/3 127/96/3
f 115/98/4 75/144/4 97/99/4
f 19/101/1 51/69/1 50/38/1
f 51/69/1 52/58/1 49/59/1
f 23/102/3 55/104/3 54/103/3
f 55/104/3 56/56/3 53/53/3
f 31/52/5 22/55/5 54/103/5
f 54/103/5 53/53/5 64/35/5
f 114/108/6 108/50/6 20/106/6
f 20/106/6 52/282/6 82/107/6
f 82/109/6 81/258/6 103/110/6
f 55/113/6 23/46/6 106/68/6
f 106/68/6 113/174/6 83/112/6
f 66/114/4 127/96/4 117/115/4
f 112/117/2 80/147/2 100/118/2
f 29/74/5 61/88/5 49/59/5
f 61/88/5 62/37/5 50/38/5
f 31/52/5 63/105/5 71/87/5
f 63/105/5 64/35/5 72/36/5
f 73/90/6 76/127/6 75/120/6
f 105/122/1 74/121/1 75/120/1
f 109/124/4 73/90/4 74/121/4
f 115/126/2 75/120/2 76/127/2
f 80/64/6 77/133/6 78/129/6
f 112/131/4 80/64/4 79/130/4
f 107/85/2 78/129/2 77/133/2
f 111/134/1 79/130/1 78/129/1
f 83/136/6 113/158/6 101/137/6
f 85/139/6 109/124/6 105/125/6
f 35/77/2 89/283/2 90/141/2
f 39/79/4 91/284/4 92/142/4
f 55/104/3 95/285/3 96/143/3
f 75/144/6 79/156/6 98/145/6
f 99/146/6 100/118/6 80/147/6
f 116/149/1 76/148/1 80/147/1
f 111/151/3 79/156/3 75/144/3
f 103/110/3 100/118/3 99/146/3
f 114/153/4 99/146/4 76/148/4
f 101/155/2 98/145/2 79/156/2
f 113/158/1 97/99/1 98/145/1
f 26/159/6 102/18/6 101/160/6
f 28/162/6 60/183/6 103/163/6
f 25/164/6 106/68/6 105/165/6
f 26/159/6 48/170/6 107/80/6
f 27/167/6 45/178/6 109/40/6
f 28/162/6 104/17/6 110/168/6
f 48/170/6 66/181/6 111/171/6
f 47/169/6 110/168/6 112/172/6
f 25/164/6 57/180/6 113/174/6
f 27/167/6 108/50/6 114/108/6
f 46/166/6 105/165/6 115/176/6
f 45/178/6 67/182/6 116/179/6
f 57/180/6 65/177/6 115/176/6
f 58/161/6 101/160/6 111/171/6
f 59/175/6 114/108/6 116/179/6
f 60/183/6 68/173/6 112/172/6
f 119/184/6 120/218/6 126/43/6
f 127/96/6 123/208/6 118/186/6
f 121/187/6 131/215/6 129/188/6
f 124/190/6 130/61/6 132/191/6
f 58/193/1 117/115/1 118/186/1
f 60/195/4 119/184/4 128/185/4
f 25/197/1 122/189/1 129/188/1
f 28/199/3 120/218/3 119/184/3
f 59/201/3 130/61/3 124/190/3
f 46/203/4 121/187/4 122/189/4
f 65/205/3 131/215/3 121/187/3
f 26/207/2 118/186/2 123/208/2
f 45/210/1 125/192/1 132/191/1
f 27/212/4 124/190/4 125/192/4
f 57/214/2 129/188/2 131/215/2
f 47/217/2 126/43/2 120/218/2
f 143/220/7 144/223/7 142/221/7
f 144/223/8 94/286/8 93/224/8
f 95/225/9 138/228/9 140/226/9
f 138/228/10 137/251/10 139/229/10
f 147/230/11 148/233/11 146/231/11
f 148/233/12 90/287/12 89/234/12
f 91/235/13 134/238/13 136/236/13
f 134/238/14 133/244/14 135/239/14
f 91/242/3 39/288/3 88/240/3
f 88/240/3 133/289/3 134/241/3
f 87/243/2 135/239/2 133/244/2
f 135/247/1 87/290/1 40/245/1
f 40/245/1 92/291/1 136/246/1
f 95/250/2 55/292/2 83/248/2
f 83/248/2 137/293/2 138/249/2
f 84/138/1 139/229/1 137/251/1
f 139/254/4 84/294/4 56/252/4
f 56/252/4 96/295/4 140/253/4
f 93/257/4 51/296/4 81/255/4
f 81/255/4 141/297/4 142/256/4
f 82/109/3 143/220/3 141/222/3
f 143/261/2 82/298/2 52/259/2
f 52/259/2 94/299/2 144/260/2
f 89/264/1 35/300/1 85/262/1
f 85/262/1 145/301/1 146/263/1
f 86/140/4 147/230/4 145/232/4
f 147/267/3 86/302/3 36/265/3
f 36/265/3 90/303/3 148/266/3
f 111/268/6 115/304/6 150/269/6
